<?xml version="1.0" encoding="UTF-8" standalone="no"?>
<!-- Created with Inkscape (http://www.inkscape.org/) -->

<svg
   width="62.262753mm"
   height="62.262753mm"
   viewBox="0 0 62.262753 62.262753"
   version="1.1"
   id="svg1"
   xml:space="preserve"
   inkscape:version="1.3 (0e150ed6c4, 2023-07-21)"
   sodipodi:docname="transliterate.svg"
   xmlns:inkscape="http://www.inkscape.org/namespaces/inkscape"
   xmlns:sodipodi="http://sodipodi.sourceforge.net/DTD/sodipodi-0.dtd"
   xmlns="http://www.w3.org/2000/svg"
   xmlns:svg="http://www.w3.org/2000/svg"><sodipodi:namedview
     id="namedview1"
     pagecolor="#ffffff"
     bordercolor="#666666"
     borderopacity="1.0"
     inkscape:showpageshadow="2"
     inkscape:pageopacity="0.0"
     inkscape:pagecheckerboard="0"
     inkscape:deskcolor="#d1d1d1"
     inkscape:document-units="mm"
     inkscape:zoom="0.90135905"
     inkscape:cx="229.65321"
     inkscape:cy="204.69091"
     inkscape:window-width="1920"
     inkscape:window-height="1011"
     inkscape:window-x="0"
     inkscape:window-y="0"
     inkscape:window-maximized="1"
     inkscape:current-layer="layer1" /><defs
     id="defs1" /><g
     inkscape:label="Calque 1"
     inkscape:groupmode="layer"
     id="layer1"
     transform="translate(-65.13266,-109.15158)"><g
       id="g5"
       transform="matrix(0.87548504,0,0,0.87548504,12.747957,17.823264)"
       style="fill:#979797;fill-opacity:1;stroke:#171717;stroke-opacity:1"><path
         d="m 92.984092,147.64789 h 3.912774 v -6.73867 h -3.647092 c -3.743704,0 -5.965773,-1.52163 -5.965773,-3.86447 3.188186,-1.13519 5.096268,-3.67124 5.192879,-7.46325 -0.09661,-5.55518 -4.057692,-8.91243 -10.55483,-8.91243 h -5.627632 v 6.73866 h 4.733974 c 2.825893,0 4.661515,1.32841 4.685668,3.6471 -0.02415,2.24622 -1.690705,3.52632 -4.105998,3.52632 -1.038576,0.0242 -1.98054,-0.16907 -2.463598,-0.43475 h -0.265683 c 0.458906,8.71921 5.675939,13.50149 14.105311,13.50149 z"
         id="text2"
         style="font-weight:bold;font-size:49.4652px;line-height:110%;font-family:'Inter Alia';-inkscape-font-specification:'Inter Alia, Bold';text-align:center;letter-spacing:0px;word-spacing:0px;text-anchor:middle;fill:#979797;fill-opacity:1;stroke:#171717;stroke-width:2.64583;stroke-opacity:1;paint-order:stroke markers fill"
         aria-label="ð‘·" /><path
         d="m 111.98818,163.12268 -1.93236,-6.31732 h -9.66178 l -1.93236,6.31732 h -6.057195 l 9.364495,-26.64422 h 6.87473 l 9.40166,26.64422 z m -5.2025,-17.2054 q -0.18581,-0.63174 -0.48309,-1.59791 -0.29729,-0.96618 -0.59457,-1.96952 -0.29729,-1.00334 -0.48309,-1.74655 -0.18581,0.74321 -0.52025,1.85803 -0.29729,1.07766 -0.59457,2.081 -0.26013,0.96618 -0.40877,1.37495 l -1.8952,6.16867 h 6.91189 z"
         id="text1"
         style="font-weight:bold;font-size:37.1607px;line-height:110%;font-family:'Noto Sans';-inkscape-font-specification:'Noto Sans, Bold';text-align:center;letter-spacing:0px;word-spacing:0px;text-anchor:middle;fill:#979797;fill-opacity:1;stroke:#171717;stroke-width:2.64583;stroke-opacity:1;paint-order:stroke markers fill"
         aria-label="A" /><path
         id="path2"
         style="fill:#979797;fill-opacity:1;stroke:#171717;stroke-width:2.64583;stroke-dasharray:none;stroke-opacity:1;paint-order:stroke markers fill"
         d="m 75.616765,143.7044 -4.106511,1.71955 c 0.31918,5.95356 3.880372,11.51914 9.702555,14.11416 l -2.504148,5.61826 10.829552,-4.15227 -4.152268,-10.82955 -2.503661,5.61844 c -4.845559,-2.15971 -7.609293,-7.08177 -7.265519,-12.08859 z" /><path
         id="path4"
         style="fill:#979797;fill-opacity:1;stroke:#171717;stroke-width:2.64583;stroke-dasharray:none;stroke-opacity:1;paint-order:stroke markers fill"
         d="m 115.65461,134.85936 3.43298,-2.83461 c -2.02884,-5.6063 -7.04858,-9.9028 -13.37266,-10.70144 l 0.77068,-6.10259 -9.164025,7.10922 7.109215,9.16403 0.77018,-6.10262 c 5.26326,0.66467 9.33342,4.57603 10.45363,9.46801 z" /></g></g></svg>
